<?xml version="1.0" standalone="no"?>
<!DOCTYPE svg PUBLIC "-//W3C//DTD SVG 20010904//EN"
 "http://www.w3.org/TR/2001/REC-SVG-20010904/DTD/svg10.dtd">
<svg version="1.0" xmlns="http://www.w3.org/2000/svg"
 width="512.000000pt" height="512.000000pt" viewBox="0 0 512.000000 512.000000"
 preserveAspectRatio="xMidYMid meet">

<g transform="translate(0.000000,512.000000) scale(0.100000,-0.100000)"
fill="#000000" stroke="none">
<path d="M1273 5110 c-38 -15 -53 -54 -73 -186 -33 -227 -50 -293 -170 -659
-49 -148 -98 -309 -110 -356 -67 -286 -69 -626 -5 -906 9 -37 94 -361 190
-718 96 -358 180 -689 186 -735 22 -174 -12 -356 -104 -555 -71 -151 -87 -215
-87 -335 0 -181 63 -335 189 -461 205 -204 448 -245 846 -141 122 32 154 36
255 36 97 -1 128 -5 195 -27 191 -63 160 -60 789 -64 561 -4 581 -4 646 16 82
25 158 88 198 165 24 46 27 62 27 151 0 110 -13 148 -77 221 -68 77 -129 101
-288 115 -135 11 -234 36 -329 83 -114 56 -581 366 -637 423 -63 65 -120 171
-139 260 -12 57 -15 270 -15 1303 0 1270 2 1364 41 1555 18 93 37 152 148 465
47 133 74 251 65 286 -3 13 -20 35 -36 49 l-30 25 -826 -1 c-455 0 -837 -4
-849 -9z m1517 -200 c0 -5 -16 -53 -36 -107 -20 -54 -54 -147 -76 -208 -21
-60 -54 -134 -72 -165 -19 -30 -61 -110 -94 -176 -194 -388 -308 -763 -369
-1214 -16 -118 -18 -211 -18 -745 l0 -610 28 -88 c49 -158 118 -276 228 -392
124 -130 295 -229 468 -269 33 -8 65 -17 73 -22 7 -4 105 -69 218 -143 359
-235 464 -280 718 -300 119 -10 152 -23 178 -72 20 -39 17 -98 -6 -137 -39
-64 -32 -64 -654 -60 l-561 4 -90 28 c-185 58 -195 60 -335 60 -124 1 -147 -2
-282 -37 -192 -48 -324 -64 -421 -48 -190 30 -339 169 -378 352 -13 60 -7 197
11 247 10 27 25 38 88 68 186 86 334 247 399 437 l28 82 0 380 c-1 425 -1 428
-81 628 l-37 91 46 141 c60 185 101 357 128 535 27 174 32 542 10 700 -49 357
-165 694 -332 963 -27 43 -49 80 -49 83 0 2 286 4 635 4 399 0 635 -4 635 -10z
m-1306 -340 c74 -150 140 -330 175 -480 43 -184 55 -306 55 -535 0 -224 -11
-335 -53 -535 l-17 -85 -39 60 c-62 95 -189 349 -240 478 -74 189 -165 536
-165 629 0 17 27 113 60 213 33 100 71 231 85 291 39 161 35 152 52 128 8 -10
47 -84 87 -164z m1071 -2508 c-3 -3 -57 30 -121 73 l-117 78 6 341 c4 215 11
382 21 451 40 297 86 494 174 745 l37 105 3 -894 c1 -492 0 -897 -3 -899z"/>
</g>
</svg>
