<?xml version="1.0" standalone="no"?>
<!DOCTYPE svg PUBLIC "-//W3C//DTD SVG 20010904//EN"
 "http://www.w3.org/TR/2001/REC-SVG-20010904/DTD/svg10.dtd">
<svg version="1.0" xmlns="http://www.w3.org/2000/svg"
 width="512.000000pt" height="512.000000pt" viewBox="0 0 512.000000 512.000000"
 preserveAspectRatio="xMidYMid meet">

<g transform="translate(0.000000,512.000000) scale(0.100000,-0.100000)"
fill="#000000" stroke="none">
<path d="M811 4713 c-54 -28 -70 -59 -111 -224 -168 -660 -272 -1452 -301
-2277 -21 -586 19 -1053 133 -1580 34 -159 53 -197 111 -225 44 -22 85 -16
127 19 51 44 54 74 21 221 -65 283 -111 600 -132 898 -13 188 -7 804 11 1035
52 697 137 1267 272 1822 l50 208 -19 37 c-34 70 -102 97 -162 66z"/>
<path d="M4220 4719 c-37 -15 -68 -48 -80 -84 -9 -27 -5 -56 24 -171 193 -769
306 -1710 306 -2540 0 -452 -43 -838 -141 -1276 l-30 -137 19 -44 c44 -98 175
-98 226 1 33 64 113 492 146 782 75 660 30 1609 -121 2515 -60 363 -170 849
-203 899 -33 51 -98 75 -146 55z"/>
<path d="M1709 4011 c-34 -33 -39 -45 -39 -83 0 -31 7 -54 22 -73 40 -52 453
-418 517 -459 l63 -41 -6 -90 c-4 -49 -20 -223 -37 -385 -107 -1073 -219
-1721 -371 -2157 -28 -81 -53 -172 -55 -201 -5 -49 -3 -54 29 -86 42 -42 91
-53 141 -33 47 20 62 44 114 195 177 507 307 1273 413 2437 12 127 23 236 26
243 2 8 16 12 36 10 l33 -3 17 -180 c96 -1014 195 -1691 313 -2152 44 -170
139 -458 166 -502 42 -69 135 -77 196 -16 44 44 44 90 -2 215 -72 195 -147
482 -199 760 -77 405 -160 1063 -223 1749 -17 188 -17 195 1 205 68 41 124 86
321 263 122 109 232 212 243 229 14 19 22 45 22 73 0 37 -6 49 -39 82 -33 33
-45 39 -80 39 -23 0 -51 -5 -62 -10 -10 -6 -117 -99 -236 -206 -119 -108 -235
-208 -258 -223 -130 -89 -300 -89 -431 0 -22 15 -138 115 -256 222 -119 108
-225 200 -237 206 -11 6 -39 11 -62 11 -35 0 -47 -6 -80 -39z"/>
<path d="M1038 3234 c-46 -24 -57 -62 -78 -257 -55 -517 -71 -1204 -36 -1547
20 -205 31 -234 93 -262 55 -24 110 -12 147 33 30 35 32 66 16 243 -5 61 -11
138 -13 172 l-3 61 63 32 c265 138 507 441 618 775 46 139 66 241 72 376 5
109 4 117 -19 150 -33 49 -92 69 -144 49 -61 -23 -80 -61 -88 -176 -22 -302
-138 -570 -335 -776 -63 -65 -150 -137 -166 -137 -17 0 9 561 42 900 10 96 17
206 18 243 0 67 -1 70 -37 103 -31 28 -45 34 -80 34 -24 -1 -55 -7 -70 -16z"/>
<path d="M3927 3210 l-40 -40 6 -73 c3 -39 13 -144 21 -232 32 -335 58 -895
41 -895 -17 0 -107 75 -174 146 -192 202 -305 468 -327 767 -8 117 -27 154
-91 176 -35 13 -46 13 -79 0 -22 -9 -49 -29 -62 -49 -23 -33 -24 -41 -19 -150
6 -135 26 -237 72 -376 110 -333 353 -637 616 -773 l65 -34 -3 -61 c-2 -34 -8
-111 -13 -172 -16 -177 -14 -208 16 -243 14 -18 42 -35 65 -41 54 -15 119 13
142 61 19 42 43 291 53 544 13 387 -47 1341 -91 1425 -20 38 -63 60 -116 60
-35 0 -47 -6 -82 -40z"/>
</g>
</svg>
